<svg width="644" height="240" viewBox="0 0 644 240" fill="none" xmlns="http://www.w3.org/2000/svg">
    <path d="M170.251 224C170.251 229.523 165.774 234 160.251 234H116.901C111.378 234 106.901 229.523 106.901 224V182.9H11.5508C6.02792 182.9 1.55078 178.423 1.55078 172.9V143.676C1.55078 141.86 2.04548 140.077 2.98176 138.521L79.4861 11.345C81.2947 8.33855 84.5466 6.49981 88.0551 6.49981H160.251C165.774 6.49981 170.251 10.977 170.251 16.4998V134.95H186.501C192.024 134.95 196.501 139.427 196.501 144.95V172.9C196.501 178.423 192.024 182.9 186.501 182.9H170.251V224ZM63.1508 134.95H106.901V95.7498C106.901 86.4165 107.367 70.0831 108.301 46.7498H106.901C105.967 48.8498 102.467 56.0832 96.4008 68.4498C90.5675 80.8165 85.9008 90.3831 82.4008 97.1498L63.5008 134.25L63.1508 134.95ZM320.475 238.2H320.125C303.558 238.2 288.975 235.05 276.375 228.75C264.008 222.45 254.091 213.7 246.625 202.5C239.158 191.3 233.558 178.816 229.825 165.05C226.325 151.283 224.575 136.35 224.575 120.25C224.575 98.5498 227.608 79.1832 233.675 62.1498C239.975 44.8832 250.475 30.6498 265.175 19.4498C280.108 8.01647 298.541 2.2998 320.475 2.2998C342.408 2.2998 360.725 8.01647 375.425 19.4498C390.358 30.6498 400.858 44.8832 406.925 62.1498C413.225 79.1832 416.375 98.5498 416.375 120.25C416.375 136.35 414.508 151.283 410.775 165.05C407.275 178.816 401.791 191.3 394.325 202.5C386.858 213.7 376.825 222.45 364.225 228.75C351.625 235.05 337.041 238.2 320.475 238.2ZM320.475 190.6H320.825C330.158 190.6 337.391 184.766 342.525 173.1C347.891 161.2 350.575 143.583 350.575 120.25C350.575 73.5831 340.541 50.2498 320.475 50.2498C300.408 50.2498 290.375 73.5831 290.375 120.25C290.375 143.816 293.058 161.433 298.425 173.1C303.791 184.766 311.141 190.6 320.475 190.6ZM615.598 224C615.598 229.523 611.121 234 605.598 234H562.248C556.726 234 552.248 229.523 552.248 224V182.9H456.898C451.376 182.9 446.898 178.423 446.898 172.9V143.676C446.898 141.86 447.393 140.077 448.329 138.521L524.834 11.345C526.642 8.33855 529.894 6.49981 533.403 6.49981H605.598C611.121 6.49981 615.598 10.977 615.598 16.4998V134.95H631.848C637.371 134.95 641.848 139.427 641.848 144.95V172.9C641.848 178.423 637.371 182.9 631.848 182.9H615.598V224ZM508.498 134.95H552.248V95.7498C552.248 86.4165 552.715 70.0831 553.648 46.7498H552.248C551.315 48.8498 547.815 56.0832 541.748 68.4498C535.915 80.8165 531.248 90.3831 527.748 97.1498L508.848 134.25L508.498 134.95Z" stroke="white" stroke-width="3" stroke-linecap="round" stroke-dasharray="10 10"/>
</svg>
