<svg width="8" height="13" viewBox="0 0 8 13" fill="none" xmlns="http://www.w3.org/2000/svg">
<path d="M1.8488 13.0001C1.98325 13.0006 2.1161 12.9709 2.23758 12.9133C2.35907 12.8556 2.46609 12.7715 2.5508 12.6671L6.8978 7.26712C7.03017 7.10608 7.10254 6.90408 7.10254 6.69562C7.10254 6.48715 7.03017 6.28516 6.8978 6.12412L2.3978 0.724114C2.24503 0.540319 2.02551 0.424737 1.78753 0.402795C1.54955 0.380853 1.31259 0.454349 1.1288 0.607114C0.945004 0.759879 0.829422 0.979399 0.80748 1.21738C0.785538 1.45537 0.859034 1.69232 1.0118 1.87611L5.0348 6.70012L1.1468 11.5241C1.03674 11.6562 0.966835 11.8171 0.945343 11.9877C0.923851 12.1583 0.951677 12.3315 1.02553 12.4867C1.09938 12.642 1.21616 12.7729 1.36206 12.8639C1.50796 12.9548 1.67687 13.0021 1.8488 13.0001Z" fill="white"/>
</svg>
