<svg width="8" height="13" viewBox="0 0 8 13" fill="none" xmlns="http://www.w3.org/2000/svg">
<path d="M6.14827 13.0001C6.01382 13.0005 5.88097 12.9708 5.75949 12.9132C5.638 12.8556 5.53098 12.7715 5.44627 12.6671L1.09927 7.26706C0.966897 7.10602 0.894531 6.90402 0.894531 6.69555C0.894531 6.48709 0.966897 6.28509 1.09927 6.12405L5.59927 0.724053C5.75204 0.540258 5.97156 0.424676 6.20954 0.402734C6.44752 0.380792 6.68448 0.454288 6.86827 0.607053C7.05207 0.759818 7.16765 0.979338 7.18959 1.21732C7.21153 1.45531 7.13804 1.69226 6.98527 1.87605L2.96227 6.70006L6.85027 11.5241C6.96033 11.6562 7.03024 11.817 7.05173 11.9876C7.07322 12.1582 7.04539 12.3314 6.97154 12.4867C6.89769 12.6419 6.78091 12.7728 6.63501 12.8638C6.48911 12.9548 6.3202 13.0021 6.14827 13.0001Z" fill="white"/>
</svg>
