<svg width="24" height="28" viewBox="0 0 24 28" fill="none" xmlns="http://www.w3.org/2000/svg">
<path d="M4.552 19.3333L18.0747 5.81062L16.1893 3.92528L2.66667 17.448V19.3333H4.552ZM5.95023 21.7071C5.76269 21.8946 5.50834 22 5.24312 22H1C0.447715 22 0 21.5522 0 21V16.7568C0 16.4916 0.105357 16.2373 0.292893 16.0497L15.2467 1.09595C15.4967 0.845987 15.8358 0.705566 16.1893 0.705566C16.5429 0.705566 16.882 0.845987 17.132 1.09595L20.904 4.86795C21.154 5.11799 21.2944 5.45706 21.2944 5.81062C21.2944 6.16417 21.154 6.50325 20.904 6.75328L5.95023 21.7071ZM0 26C0 25.2636 0.596954 24.6666 1.33333 24.6666H22.6667C23.403 24.6666 24 25.2636 24 26C24 26.7363 23.403 27.3333 22.6667 27.3333H1.33333C0.596954 27.3333 0 26.7363 0 26Z" fill="#091E16"/>
</svg>
