<svg width="52" height="52" viewBox="0 0 52 52" fill="none" xmlns="http://www.w3.org/2000/svg">
<path fill-rule="evenodd" clip-rule="evenodd" d="M30.876 36.0223V26.0893L26.15 31.5239L21.4208 26.0925V36.0223H15.1526V16.477H21.0873L26.15 22.7612L31.2063 16.477H37.1442V36.0223H30.876ZM16.9416 0.599609H51.8V7.01211H15.1333C12.2733 7.01211 11.2377 7.31029 10.1957 7.86818C9.14725 8.42606 8.32646 9.24687 7.76857 10.2921C7.21068 11.3373 6.9125 12.3762 6.9125 15.2297V29.4559C6.9125 31.1566 6.2369 32.7876 5.03432 33.9902C3.83174 35.1928 2.2007 35.8684 0.5 35.8684L0.5 17.0413C0.5 11.3245 1.09636 9.25007 2.21214 7.1596C3.3055 5.09415 4.99454 3.40511 7.05999 2.31175C9.15046 1.19597 11.2249 0.599609 16.9416 0.599609ZM35.3583 51.8996H0.5V45.4871H37.1667C40.0266 45.4871 41.0623 45.1889 42.1043 44.631C43.1527 44.0731 43.9735 43.2523 44.5314 42.2071C45.0893 41.1619 45.3875 40.1231 45.3875 37.2695V23.0434C45.3875 21.3427 46.0631 19.7116 47.2657 18.509C48.4683 17.3065 50.0993 16.6309 51.8 16.6309V35.458C51.8 41.1747 51.2036 43.2491 50.0879 45.3396C48.9945 47.4051 47.3055 49.0941 45.24 50.1875C43.1495 51.3032 41.0751 51.8996 35.3583 51.8996Z" fill="white"/>
</svg>
