<svg width="97" height="109" viewBox="0 0 97 109" fill="none" xmlns="http://www.w3.org/2000/svg">
<path d="M25.3256 48.2444C25.3256 47.1848 26.1846 46.3258 27.2442 46.3258C28.3038 46.3258 29.1628 47.1848 29.1628 48.2444V53.2328H34.1512C35.2108 53.2328 36.0698 54.0918 36.0698 55.1514C36.0698 56.211 35.2108 57.07 34.1512 57.07H29.1628V62.0584C29.1628 63.118 28.3038 63.977 27.2442 63.977C26.1846 63.977 25.3256 63.118 25.3256 62.0584V57.07H20.3372C19.2776 57.07 18.4186 56.211 18.4186 55.1514C18.4186 54.0918 19.2776 53.2328 20.3372 53.2328H25.3256V48.2444Z" fill="#B8140D"/>
<path fill-rule="evenodd" clip-rule="evenodd" d="M69.6903 2.16792C69.6903 1.12484 70.536 0.279297 71.5789 0.279297H94.8091C95.8521 0.279297 96.6977 1.12484 96.6973 2.16792V106.175C96.6973 106.939 96.237 107.627 95.5315 107.92C95.2978 108.016 95.0523 108.063 94.8091 108.063C94.3176 108.063 93.8345 107.872 93.4732 107.51L88.3118 102.349L83.1506 107.51C82.7964 107.864 82.316 108.063 81.8151 108.063C81.3142 108.063 80.834 107.864 80.4797 107.51L75.3182 102.349L70.157 107.51C69.8027 107.864 69.3224 108.063 68.8215 108.063C68.3207 108.063 67.8404 107.864 67.4861 107.51L62.3247 102.349L57.1629 107.51C56.8086 107.865 56.3283 108.064 55.8274 108.064C55.3266 108.064 54.8463 107.865 54.492 107.51L49.3307 102.349L44.1693 107.51C43.815 107.865 43.3347 108.064 42.8339 108.064C42.333 108.064 41.8525 107.865 41.4984 107.51L36.3372 102.349L31.1757 107.51C30.6356 108.05 29.8231 108.212 29.1175 107.92C28.4119 107.627 27.9517 106.939 27.9517 106.175V82.66C27.7007 82.6668 27.4489 82.671 27.1962 82.671C12.2001 82.671 0 70.4709 0 55.4748C0 40.4787 12.2001 28.2786 27.1962 28.2786C27.4489 28.2786 27.7007 28.2827 27.9517 28.2895V2.16792C27.9517 1.12484 28.7974 0.279297 29.8403 0.279297H63.7277C64.7706 0.279297 65.6163 1.12484 65.6163 2.16792C65.6163 3.21101 64.7706 4.05655 63.7277 4.05655H31.7289V28.6584C37.7394 29.671 43.0868 32.6617 47.0759 36.9356C47.3986 36.3568 48.0169 35.9653 48.7266 35.9653H85.216C86.2589 35.9653 87.1047 36.8109 87.1047 37.854C87.1047 38.8971 86.2589 39.7426 85.216 39.7426H49.3681C52.5308 44.1862 54.3924 49.617 54.3924 55.4748C54.3924 68.9267 44.575 80.1268 31.7289 82.2912V101.615L35.0019 98.3425C35.3562 97.9884 35.8365 97.7893 36.3374 97.7893C36.8382 97.7893 37.3185 97.9884 37.6728 98.3425L42.834 103.504L47.9957 98.3425C48.35 97.9884 48.8302 97.7893 49.3311 97.7893C49.832 97.7893 50.3124 97.9884 50.6666 98.3425L55.8278 103.504L60.9892 98.3425C61.7271 97.605 62.9226 97.605 63.6603 98.3425L68.8217 103.504L73.983 98.3425C74.3371 97.9884 74.8176 97.7893 75.3184 97.7893C75.8193 97.7893 76.2996 97.9884 76.6539 98.3425L81.8153 103.504L86.9767 98.3425C87.331 97.9884 87.8113 97.7893 88.3122 97.7893C88.813 97.7893 89.2933 97.9884 89.6476 98.3425L92.9204 101.615V4.05655H71.5789C70.536 4.05655 69.6903 3.21101 69.6903 2.16792ZM27.1962 32.0558C14.2829 32.0558 3.77725 42.5615 3.77725 55.4748C3.77725 68.3881 14.2829 78.8937 27.1962 78.8937C40.1095 78.8937 50.6152 68.3881 50.6152 55.4748C50.6152 42.5615 40.1095 32.0558 27.1962 32.0558Z" fill="#B8140D"/>
<path fill-rule="evenodd" clip-rule="evenodd" d="M85.9835 10.4779C87.0264 10.4779 87.8721 11.3234 87.8721 12.3665V20.6765C87.8721 21.7195 87.0266 22.5651 85.9835 22.5651H38.1503C37.1074 22.5651 36.2616 21.7195 36.2616 20.6765V12.3665C36.2616 11.3234 37.1074 10.4779 38.1503 10.4779H85.9835ZM40.0389 18.7878H84.0948V14.2551H40.0389V18.7878Z" fill="#B8140D"/>
<path d="M46.8379 28.9864C46.8379 30.0295 47.6837 30.875 48.7266 30.875H85.216C86.2589 30.875 87.1047 30.0295 87.1047 28.9864C87.1047 27.9433 86.2589 27.0978 85.216 27.0978H48.7266C47.6837 27.0978 46.8379 27.9433 46.8379 28.9864Z" fill="#B8140D"/>
<path d="M86.4991 51.8889C86.4991 50.8458 85.6536 50.0002 84.6105 50.0002H62.3247C61.2818 50.0002 60.436 50.8458 60.436 51.8889C60.436 52.932 61.2818 53.7775 62.3247 53.7775H84.6105C85.6534 53.7775 86.4991 52.932 86.4991 51.8889Z" fill="#B8140D"/>
<path d="M60.436 62.4652C60.436 61.4221 61.2818 60.5766 62.3247 60.5766H84.6105C85.6536 60.5766 86.4991 61.4221 86.4991 62.4652C86.4991 63.5083 85.6534 64.3538 84.6105 64.3538H62.3247C61.2818 64.3538 60.436 63.5083 60.436 62.4652Z" fill="#B8140D"/>
<path d="M86.4991 73.0415C86.4991 71.9984 85.6536 71.1529 84.6105 71.1529H62.3247C61.2818 71.1529 60.436 71.9984 60.436 73.0415C60.436 74.0846 61.2818 74.9301 62.3247 74.9301H84.6105C85.6534 74.9301 86.4991 74.0846 86.4991 73.0415Z" fill="#B8140D"/>
<path d="M60.436 83.9296C60.436 82.8865 61.2818 82.0409 62.3247 82.0409H84.6105C85.6536 82.0409 86.4991 82.8865 86.4991 83.9296C86.4991 84.9727 85.6534 85.8182 84.6105 85.8182H62.3247C61.2818 85.8182 60.436 84.9727 60.436 83.9296Z" fill="#B8140D"/>
</svg>
