<svg width="30" height="29" viewBox="0 0 30 29" fill="none" xmlns="http://www.w3.org/2000/svg">
<path fill-rule="evenodd" clip-rule="evenodd" d="M18.0652 20.0245V14.4094L15.3936 17.4816L12.7201 14.4112V20.0245H9.17668V8.9755H12.5316L15.3936 12.528L18.2519 8.9755H21.6086V20.0245H18.0652ZM10.1881 0H29.8936V3.625H9.1658C7.54906 3.625 6.96362 3.79356 6.37455 4.10894C5.78187 4.42431 5.31787 4.88831 5.00249 5.47919C4.68712 6.07006 4.51855 6.65731 4.51855 8.27044V16.3125C4.51855 17.2739 4.13664 18.1959 3.45682 18.8758C2.777 19.5556 1.85496 19.9375 0.893555 19.9375L0.893555 9.2945C0.893555 6.06281 1.23068 4.89012 1.86143 3.70837C2.47951 2.54078 3.43433 1.58595 4.60193 0.967875C5.78368 0.337125 6.95637 0 10.1881 0ZM20.5991 29H0.893555V25.375H21.6213C23.2381 25.375 23.8235 25.2064 24.4126 24.8911C25.0052 24.5757 25.4692 24.1117 25.7846 23.5208C26.1 22.9299 26.2686 22.3427 26.2686 20.7296V12.6875C26.2686 11.7261 26.6505 10.8041 27.3303 10.1242C28.0101 9.44442 28.9321 9.0625 29.8936 9.0625V19.7055C29.8936 22.9372 29.5564 24.1099 28.9257 25.2916C28.3076 26.4592 27.3528 27.414 26.1852 28.0321C25.0034 28.6629 23.8307 29 20.5991 29Z" fill="white"/>
</svg>
