<svg width="262" height="98" viewBox="0 0 262 98" fill="none" xmlns="http://www.w3.org/2000/svg">
<path d="M69.5033 91.2908C69.5033 93.4999 67.7124 95.2908 65.5032 95.2908H47.7793C45.5701 95.2908 43.7793 93.4999 43.7793 91.2908V74.4956H5.00073C2.79159 74.4956 1.00073 72.7047 1.00073 70.4956V58.5119C1.00073 57.7867 1.1979 57.0751 1.57113 56.4533L32.6655 4.6506C33.3884 3.44613 34.6903 2.7092 36.0951 2.7092H65.5033C67.7124 2.7092 69.5033 4.50006 69.5033 6.7092V54.9822H76.1624C78.3715 54.9822 80.1624 56.7731 80.1624 58.9822V70.4956C80.1624 72.7047 78.3715 74.4956 76.1624 74.4956H69.5033V91.2908ZM26.0141 54.9822H43.7793V39.0297C43.7793 35.2315 43.9688 28.5846 44.3478 19.089H43.7793C43.4003 19.9436 41.9791 22.8872 39.5156 27.9199C37.1469 32.9525 35.252 36.8457 33.8308 39.5994L26.1562 54.6973L26.0141 54.9822ZM130.503 97H130.361C123.634 97 117.712 95.7181 112.596 93.1543C107.574 90.5905 103.548 87.0297 100.516 82.4718C97.4838 77.9139 95.2098 72.8338 93.6939 67.2315C92.2726 61.6291 91.562 55.5519 91.562 49C91.562 40.1691 92.7938 32.2878 95.2572 25.3561C97.8154 18.3294 102.079 12.5371 108.048 7.97923C114.112 3.32641 121.597 1 130.503 1C139.41 1 146.847 3.32641 152.816 7.97923C158.88 12.5371 163.144 18.3294 165.607 25.3561C168.165 32.2878 169.445 40.1691 169.445 49C169.445 55.5519 168.687 61.6291 167.171 67.2315C165.749 72.8338 163.523 77.9139 160.491 82.4718C157.459 87.0297 153.385 90.5905 148.268 93.1543C143.152 95.7181 137.23 97 130.503 97ZM130.503 77.6291H130.645C134.435 77.6291 137.373 75.2552 139.457 70.5074C141.636 65.6647 142.726 58.4955 142.726 49C142.726 30.0089 138.652 20.5134 130.503 20.5134C122.355 20.5134 118.281 30.0089 118.281 49C118.281 58.5905 119.37 65.7596 121.55 70.5074C123.729 75.2552 126.713 77.6291 130.503 77.6291ZM250.342 91.2908C250.342 93.4999 248.551 95.2908 246.342 95.2908H228.618C226.409 95.2908 224.618 93.4999 224.618 91.2908V74.4956H185.839C183.63 74.4956 181.839 72.7047 181.839 70.4956V58.5119C181.839 57.7867 182.036 57.0751 182.41 56.4533L213.504 4.6506C214.227 3.44613 215.529 2.7092 216.933 2.7092H246.342C248.551 2.7092 250.342 4.50006 250.342 6.7092V54.9822H257.001C259.21 54.9822 261.001 56.7731 261.001 58.9822V70.4956C261.001 72.7047 259.21 74.4956 257.001 74.4956H250.342V91.2908ZM206.852 54.9822H224.618V39.0297C224.618 35.2315 224.807 28.5846 225.186 19.089H224.618C224.239 19.9436 222.817 22.8872 220.354 27.9199C217.985 32.9525 216.09 36.8457 214.669 39.5994L206.995 54.6973L206.852 54.9822Z" stroke="white" stroke-width="2" stroke-linecap="round" stroke-dasharray="7 7"/>
</svg>
